<?xml version="1.0" encoding="utf-8" standalone="no"?>
<!DOCTYPE svg PUBLIC "-//W3C//DTD SVG 1.1//EN"
  "http://www.w3.org/Graphics/SVG/1.1/DTD/svg11.dtd">
<svg xmlns:xlink="http://www.w3.org/1999/xlink" width="648pt" height="363.6pt" viewBox="0 0 648 363.6" xmlns="http://www.w3.org/2000/svg" version="1.1">
 <metadata>
  <rdf:RDF xmlns:dc="http://purl.org/dc/elements/1.1/" xmlns:cc="http://creativecommons.org/ns#" xmlns:rdf="http://www.w3.org/1999/02/22-rdf-syntax-ns#">
   <cc:Work>
    <dc:type rdf:resource="http://purl.org/dc/dcmitype/StillImage"/>
    <dc:date>2026-05-08T01:32:28.279466</dc:date>
    <dc:format>image/svg+xml</dc:format>
    <dc:creator>
     <cc:Agent>
      <dc:title>Matplotlib v3.8.4, https://matplotlib.org/</dc:title>
     </cc:Agent>
    </dc:creator>
   </cc:Work>
  </rdf:RDF>
 </metadata>
 <defs>
  <style type="text/css">*{stroke-linejoin: round; stroke-linecap: butt}</style>
 </defs>
 <g id="figure_1">
  <g id="patch_1">
   <path d="M 0 363.6
L 648 363.6
L 648 0
L 0 0
z
" style="fill: #ffffff"/>
  </g>
  <g id="axes_1">
   <g id="patch_2">
    <path d="M 84.24 272.7
L 622.08 272.7
L 622.08 29.088
L 84.24 29.088
z
" style="fill: #ffffff"/>
   </g>
   <g id="matplotlib.axis_1">
    <g id="xtick_1">
     <g id="line2d_1">
      <path d="M 104.944332 272.7
L 104.944332 29.088
" clip-path="url(#p7897578c80)" style="fill: none; stroke: #d7cdc0; stroke-opacity: 0.34; stroke-width: 0.8; stroke-linecap: square"/>
     </g>
     <g id="line2d_2">
      <defs>
       <path id="mf3d9d87940" d="M 0 0
L 0 3.5
" style="stroke: #5f6b74; stroke-width: 0.8"/>
      </defs>
      <g>
       <use xlink:href="#mf3d9d87940" x="104.944332" y="272.7" style="fill: #5f6b74; stroke: #5f6b74; stroke-width: 0.8"/>
      </g>
     </g>
     <g id="text_1">
      <!-- 100 -->
      <g style="fill: #5f6b74" transform="translate(87.765582 295.877187) scale(0.18 -0.18)">
       <defs>
        <path id="DejaVuSans-31" d="M 794 531
L 1825 531
L 1825 4091
L 703 3866
L 703 4441
L 1819 4666
L 2450 4666
L 2450 531
L 3481 531
L 3481 0
L 794 0
L 794 531
z
" transform="scale(0.015625)"/>
        <path id="DejaVuSans-30" d="M 2034 4250
Q 1547 4250 1301 3770
Q 1056 3291 1056 2328
Q 1056 1369 1301 889
Q 1547 409 2034 409
Q 2525 409 2770 889
Q 3016 1369 3016 2328
Q 3016 3291 2770 3770
Q 2525 4250 2034 4250
z
M 2034 4750
Q 2819 4750 3233 4129
Q 3647 3509 3647 2328
Q 3647 1150 3233 529
Q 2819 -91 2034 -91
Q 1250 -91 836 529
Q 422 1150 422 2328
Q 422 3509 836 4129
Q 1250 4750 2034 4750
z
" transform="scale(0.015625)"/>
       </defs>
       <use xlink:href="#DejaVuSans-31"/>
       <use xlink:href="#DejaVuSans-30" x="63.623047"/>
       <use xlink:href="#DejaVuSans-30" x="127.246094"/>
      </g>
     </g>
    </g>
    <g id="xtick_2">
     <g id="line2d_3">
      <path d="M 366.424585 272.7
L 366.424585 29.088
" clip-path="url(#p7897578c80)" style="fill: none; stroke: #d7cdc0; stroke-opacity: 0.34; stroke-width: 0.8; stroke-linecap: square"/>
     </g>
     <g id="line2d_4">
      <g>
       <use xlink:href="#mf3d9d87940" x="366.424585" y="272.7" style="fill: #5f6b74; stroke: #5f6b74; stroke-width: 0.8"/>
      </g>
     </g>
     <g id="text_2">
      <!-- 1k -->
      <g style="fill: #5f6b74" transform="translate(355.486772 295.877187) scale(0.18 -0.18)">
       <defs>
        <path id="DejaVuSans-6b" d="M 581 4863
L 1159 4863
L 1159 1991
L 2875 3500
L 3609 3500
L 1753 1863
L 3688 0
L 2938 0
L 1159 1709
L 1159 0
L 581 0
L 581 4863
z
" transform="scale(0.015625)"/>
       </defs>
       <use xlink:href="#DejaVuSans-31"/>
       <use xlink:href="#DejaVuSans-6b" x="63.623047"/>
      </g>
     </g>
    </g>
    <g id="xtick_3">
     <g id="line2d_5">
      <defs>
       <path id="m00c0a6d58f" d="M 0 0
L 0 2
" style="stroke: #5f6b74; stroke-width: 0.6"/>
      </defs>
      <g>
       <use xlink:href="#m00c0a6d58f" x="92.979652" y="272.7" style="fill: #5f6b74; stroke: #5f6b74; stroke-width: 0.6"/>
      </g>
     </g>
    </g>
    <g id="xtick_4">
     <g id="line2d_6">
      <g>
       <use xlink:href="#m00c0a6d58f" x="183.657732" y="272.7" style="fill: #5f6b74; stroke: #5f6b74; stroke-width: 0.6"/>
      </g>
     </g>
    </g>
    <g id="xtick_5">
     <g id="line2d_7">
      <g>
       <use xlink:href="#m00c0a6d58f" x="229.702118" y="272.7" style="fill: #5f6b74; stroke: #5f6b74; stroke-width: 0.6"/>
      </g>
     </g>
    </g>
    <g id="xtick_6">
     <g id="line2d_8">
      <g>
       <use xlink:href="#m00c0a6d58f" x="262.371131" y="272.7" style="fill: #5f6b74; stroke: #5f6b74; stroke-width: 0.6"/>
      </g>
     </g>
    </g>
    <g id="xtick_7">
     <g id="line2d_9">
      <g>
       <use xlink:href="#m00c0a6d58f" x="287.711185" y="272.7" style="fill: #5f6b74; stroke: #5f6b74; stroke-width: 0.6"/>
      </g>
     </g>
    </g>
    <g id="xtick_8">
     <g id="line2d_10">
      <g>
       <use xlink:href="#m00c0a6d58f" x="308.415518" y="272.7" style="fill: #5f6b74; stroke: #5f6b74; stroke-width: 0.6"/>
      </g>
     </g>
    </g>
    <g id="xtick_9">
     <g id="line2d_11">
      <g>
       <use xlink:href="#m00c0a6d58f" x="325.920781" y="272.7" style="fill: #5f6b74; stroke: #5f6b74; stroke-width: 0.6"/>
      </g>
     </g>
    </g>
    <g id="xtick_10">
     <g id="line2d_12">
      <g>
       <use xlink:href="#m00c0a6d58f" x="341.08453" y="272.7" style="fill: #5f6b74; stroke: #5f6b74; stroke-width: 0.6"/>
      </g>
     </g>
    </g>
    <g id="xtick_11">
     <g id="line2d_13">
      <g>
       <use xlink:href="#m00c0a6d58f" x="354.459905" y="272.7" style="fill: #5f6b74; stroke: #5f6b74; stroke-width: 0.6"/>
      </g>
     </g>
    </g>
    <g id="xtick_12">
     <g id="line2d_14">
      <g>
       <use xlink:href="#m00c0a6d58f" x="445.137984" y="272.7" style="fill: #5f6b74; stroke: #5f6b74; stroke-width: 0.6"/>
      </g>
     </g>
    </g>
    <g id="xtick_13">
     <g id="line2d_15">
      <g>
       <use xlink:href="#m00c0a6d58f" x="491.182371" y="272.7" style="fill: #5f6b74; stroke: #5f6b74; stroke-width: 0.6"/>
      </g>
     </g>
    </g>
    <g id="xtick_14">
     <g id="line2d_16">
      <g>
       <use xlink:href="#m00c0a6d58f" x="523.851383" y="272.7" style="fill: #5f6b74; stroke: #5f6b74; stroke-width: 0.6"/>
      </g>
     </g>
    </g>
    <g id="xtick_15">
     <g id="line2d_17">
      <g>
       <use xlink:href="#m00c0a6d58f" x="549.191438" y="272.7" style="fill: #5f6b74; stroke: #5f6b74; stroke-width: 0.6"/>
      </g>
     </g>
    </g>
    <g id="xtick_16">
     <g id="line2d_18">
      <g>
       <use xlink:href="#m00c0a6d58f" x="569.89577" y="272.7" style="fill: #5f6b74; stroke: #5f6b74; stroke-width: 0.6"/>
      </g>
     </g>
    </g>
    <g id="xtick_17">
     <g id="line2d_19">
      <g>
       <use xlink:href="#m00c0a6d58f" x="587.401034" y="272.7" style="fill: #5f6b74; stroke: #5f6b74; stroke-width: 0.6"/>
      </g>
     </g>
    </g>
    <g id="xtick_18">
     <g id="line2d_20">
      <g>
       <use xlink:href="#m00c0a6d58f" x="602.564783" y="272.7" style="fill: #5f6b74; stroke: #5f6b74; stroke-width: 0.6"/>
      </g>
     </g>
    </g>
    <g id="xtick_19">
     <g id="line2d_21">
      <g>
       <use xlink:href="#m00c0a6d58f" x="615.940157" y="272.7" style="fill: #5f6b74; stroke: #5f6b74; stroke-width: 0.6"/>
      </g>
     </g>
    </g>
    <g id="text_3">
     <!-- Permutations R -->
     <g style="fill: #17202a" transform="translate(261.347344 325.577344) scale(0.21 -0.21)">
      <defs>
       <path id="DejaVuSans-Bold-50" d="M 588 4666
L 2584 4666
Q 3475 4666 3951 4270
Q 4428 3875 4428 3144
Q 4428 2409 3951 2014
Q 3475 1619 2584 1619
L 1791 1619
L 1791 0
L 588 0
L 588 4666
z
M 1791 3794
L 1791 2491
L 2456 2491
Q 2806 2491 2997 2661
Q 3188 2831 3188 3144
Q 3188 3456 2997 3625
Q 2806 3794 2456 3794
L 1791 3794
z
" transform="scale(0.015625)"/>
       <path id="DejaVuSans-Bold-65" d="M 4031 1759
L 4031 1441
L 1416 1441
Q 1456 1047 1700 850
Q 1944 653 2381 653
Q 2734 653 3104 758
Q 3475 863 3866 1075
L 3866 213
Q 3469 63 3072 -14
Q 2675 -91 2278 -91
Q 1328 -91 801 392
Q 275 875 275 1747
Q 275 2603 792 3093
Q 1309 3584 2216 3584
Q 3041 3584 3536 3087
Q 4031 2591 4031 1759
z
M 2881 2131
Q 2881 2450 2695 2645
Q 2509 2841 2209 2841
Q 1884 2841 1681 2658
Q 1478 2475 1428 2131
L 2881 2131
z
" transform="scale(0.015625)"/>
       <path id="DejaVuSans-Bold-72" d="M 3138 2547
Q 2991 2616 2845 2648
Q 2700 2681 2553 2681
Q 2122 2681 1889 2404
Q 1656 2128 1656 1613
L 1656 0
L 538 0
L 538 3500
L 1656 3500
L 1656 2925
Q 1872 3269 2151 3426
Q 2431 3584 2822 3584
Q 2878 3584 2943 3579
Q 3009 3575 3134 3559
L 3138 2547
z
" transform="scale(0.015625)"/>
       <path id="DejaVuSans-Bold-6d" d="M 3781 2919
Q 3994 3244 4286 3414
Q 4578 3584 4928 3584
Q 5531 3584 5847 3212
Q 6163 2841 6163 2131
L 6163 0
L 5038 0
L 5038 1825
Q 5041 1866 5042 1909
Q 5044 1953 5044 2034
Q 5044 2406 4934 2573
Q 4825 2741 4581 2741
Q 4263 2741 4089 2478
Q 3916 2216 3909 1719
L 3909 0
L 2784 0
L 2784 1825
Q 2784 2406 2684 2573
Q 2584 2741 2328 2741
Q 2006 2741 1831 2477
Q 1656 2213 1656 1722
L 1656 0
L 531 0
L 531 3500
L 1656 3500
L 1656 2988
Q 1863 3284 2130 3434
Q 2397 3584 2719 3584
Q 3081 3584 3359 3409
Q 3638 3234 3781 2919
z
" transform="scale(0.015625)"/>
       <path id="DejaVuSans-Bold-75" d="M 500 1363
L 500 3500
L 1625 3500
L 1625 3150
Q 1625 2866 1622 2436
Q 1619 2006 1619 1863
Q 1619 1441 1641 1255
Q 1663 1069 1716 984
Q 1784 875 1895 815
Q 2006 756 2150 756
Q 2500 756 2700 1025
Q 2900 1294 2900 1772
L 2900 3500
L 4019 3500
L 4019 0
L 2900 0
L 2900 506
Q 2647 200 2364 54
Q 2081 -91 1741 -91
Q 1134 -91 817 281
Q 500 653 500 1363
z
" transform="scale(0.015625)"/>
       <path id="DejaVuSans-Bold-74" d="M 1759 4494
L 1759 3500
L 2913 3500
L 2913 2700
L 1759 2700
L 1759 1216
Q 1759 972 1856 886
Q 1953 800 2241 800
L 2816 800
L 2816 0
L 1856 0
Q 1194 0 917 276
Q 641 553 641 1216
L 641 2700
L 84 2700
L 84 3500
L 641 3500
L 641 4494
L 1759 4494
z
" transform="scale(0.015625)"/>
       <path id="DejaVuSans-Bold-61" d="M 2106 1575
Q 1756 1575 1579 1456
Q 1403 1338 1403 1106
Q 1403 894 1545 773
Q 1688 653 1941 653
Q 2256 653 2472 879
Q 2688 1106 2688 1447
L 2688 1575
L 2106 1575
z
M 3816 1997
L 3816 0
L 2688 0
L 2688 519
Q 2463 200 2181 54
Q 1900 -91 1497 -91
Q 953 -91 614 226
Q 275 544 275 1050
Q 275 1666 698 1953
Q 1122 2241 2028 2241
L 2688 2241
L 2688 2328
Q 2688 2594 2478 2717
Q 2269 2841 1825 2841
Q 1466 2841 1156 2769
Q 847 2697 581 2553
L 581 3406
Q 941 3494 1303 3539
Q 1666 3584 2028 3584
Q 2975 3584 3395 3211
Q 3816 2838 3816 1997
z
" transform="scale(0.015625)"/>
       <path id="DejaVuSans-Bold-69" d="M 538 3500
L 1656 3500
L 1656 0
L 538 0
L 538 3500
z
M 538 4863
L 1656 4863
L 1656 3950
L 538 3950
L 538 4863
z
" transform="scale(0.015625)"/>
       <path id="DejaVuSans-Bold-6f" d="M 2203 2784
Q 1831 2784 1636 2517
Q 1441 2250 1441 1747
Q 1441 1244 1636 976
Q 1831 709 2203 709
Q 2569 709 2762 976
Q 2956 1244 2956 1747
Q 2956 2250 2762 2517
Q 2569 2784 2203 2784
z
M 2203 3584
Q 3106 3584 3614 3096
Q 4122 2609 4122 1747
Q 4122 884 3614 396
Q 3106 -91 2203 -91
Q 1297 -91 786 396
Q 275 884 275 1747
Q 275 2609 786 3096
Q 1297 3584 2203 3584
z
" transform="scale(0.015625)"/>
       <path id="DejaVuSans-Bold-6e" d="M 4056 2131
L 4056 0
L 2931 0
L 2931 347
L 2931 1631
Q 2931 2084 2911 2256
Q 2891 2428 2841 2509
Q 2775 2619 2662 2680
Q 2550 2741 2406 2741
Q 2056 2741 1856 2470
Q 1656 2200 1656 1722
L 1656 0
L 538 0
L 538 3500
L 1656 3500
L 1656 2988
Q 1909 3294 2193 3439
Q 2478 3584 2822 3584
Q 3428 3584 3742 3212
Q 4056 2841 4056 2131
z
" transform="scale(0.015625)"/>
       <path id="DejaVuSans-Bold-73" d="M 3272 3391
L 3272 2541
Q 2913 2691 2578 2766
Q 2244 2841 1947 2841
Q 1628 2841 1473 2761
Q 1319 2681 1319 2516
Q 1319 2381 1436 2309
Q 1553 2238 1856 2203
L 2053 2175
Q 2913 2066 3209 1816
Q 3506 1566 3506 1031
Q 3506 472 3093 190
Q 2681 -91 1863 -91
Q 1516 -91 1145 -36
Q 775 19 384 128
L 384 978
Q 719 816 1070 734
Q 1422 653 1784 653
Q 2113 653 2278 743
Q 2444 834 2444 1013
Q 2444 1163 2330 1236
Q 2216 1309 1875 1350
L 1678 1375
Q 931 1469 631 1722
Q 331 1975 331 2491
Q 331 3047 712 3315
Q 1094 3584 1881 3584
Q 2191 3584 2531 3537
Q 2872 3491 3272 3391
z
" transform="scale(0.015625)"/>
       <path id="DejaVuSans-Bold-20" transform="scale(0.015625)"/>
       <path id="DejaVuSans-Bold-52" d="M 2297 2597
Q 2675 2597 2839 2737
Q 3003 2878 3003 3200
Q 3003 3519 2839 3656
Q 2675 3794 2297 3794
L 1791 3794
L 1791 2597
L 2297 2597
z
M 1791 1766
L 1791 0
L 588 0
L 588 4666
L 2425 4666
Q 3347 4666 3776 4356
Q 4206 4047 4206 3378
Q 4206 2916 3982 2619
Q 3759 2322 3309 2181
Q 3556 2125 3751 1926
Q 3947 1728 4147 1325
L 4800 0
L 3519 0
L 2950 1159
Q 2778 1509 2601 1637
Q 2425 1766 2131 1766
L 1791 1766
z
" transform="scale(0.015625)"/>
      </defs>
      <use xlink:href="#DejaVuSans-Bold-50"/>
      <use xlink:href="#DejaVuSans-Bold-65" x="73.291016"/>
      <use xlink:href="#DejaVuSans-Bold-72" x="141.113281"/>
      <use xlink:href="#DejaVuSans-Bold-6d" x="190.429688"/>
      <use xlink:href="#DejaVuSans-Bold-75" x="294.628906"/>
      <use xlink:href="#DejaVuSans-Bold-74" x="365.820312"/>
      <use xlink:href="#DejaVuSans-Bold-61" x="413.623047"/>
      <use xlink:href="#DejaVuSans-Bold-74" x="481.103516"/>
      <use xlink:href="#DejaVuSans-Bold-69" x="528.90625"/>
      <use xlink:href="#DejaVuSans-Bold-6f" x="563.183594"/>
      <use xlink:href="#DejaVuSans-Bold-6e" x="631.884766"/>
      <use xlink:href="#DejaVuSans-Bold-73" x="703.076172"/>
      <use xlink:href="#DejaVuSans-Bold-20" x="762.597656"/>
      <use xlink:href="#DejaVuSans-Bold-52" x="797.412109"/>
     </g>
    </g>
   </g>
   <g id="matplotlib.axis_2">
    <g id="ytick_1">
     <g id="line2d_22">
      <path d="M 84.24 238.805622
L 622.08 238.805622
" clip-path="url(#p7897578c80)" style="fill: none; stroke: #d7cdc0; stroke-opacity: 0.34; stroke-width: 0.8; stroke-linecap: square"/>
     </g>
     <g id="line2d_23">
      <defs>
       <path id="m68658d5d09" d="M 0 0
L -3.5 0
" style="stroke: #5f6b74; stroke-width: 0.8"/>
      </defs>
      <g>
       <use xlink:href="#m68658d5d09" x="84.24" y="238.805622" style="fill: #5f6b74; stroke: #5f6b74; stroke-width: 0.8"/>
      </g>
     </g>
     <g id="text_4">
      <!-- 0.01 -->
      <g style="fill: #5f6b74" transform="translate(34.661875 245.644216) scale(0.18 -0.18)">
       <defs>
        <path id="DejaVuSans-2e" d="M 684 794
L 1344 794
L 1344 0
L 684 0
L 684 794
z
" transform="scale(0.015625)"/>
       </defs>
       <use xlink:href="#DejaVuSans-30"/>
       <use xlink:href="#DejaVuSans-2e" x="63.623047"/>
       <use xlink:href="#DejaVuSans-30" x="95.410156"/>
       <use xlink:href="#DejaVuSans-31" x="159.033203"/>
      </g>
     </g>
    </g>
    <g id="ytick_2">
     <g id="line2d_24">
      <path d="M 84.24 126.351741
L 622.08 126.351741
" clip-path="url(#p7897578c80)" style="fill: none; stroke: #d7cdc0; stroke-opacity: 0.34; stroke-width: 0.8; stroke-linecap: square"/>
     </g>
     <g id="line2d_25">
      <g>
       <use xlink:href="#m68658d5d09" x="84.24" y="126.351741" style="fill: #5f6b74; stroke: #5f6b74; stroke-width: 0.8"/>
      </g>
     </g>
     <g id="text_5">
      <!-- 0.1 -->
      <g style="fill: #5f6b74" transform="translate(46.114375 133.190335) scale(0.18 -0.18)">
       <use xlink:href="#DejaVuSans-30"/>
       <use xlink:href="#DejaVuSans-2e" x="63.623047"/>
       <use xlink:href="#DejaVuSans-31" x="95.410156"/>
      </g>
     </g>
    </g>
    <g id="ytick_3">
     <g id="line2d_26">
      <defs>
       <path id="md56eb8200d" d="M 0 0
L -2 0
" style="stroke: #5f6b74; stroke-width: 0.6"/>
      </defs>
      <g>
       <use xlink:href="#md56eb8200d" x="84.24" y="272.657613" style="fill: #5f6b74; stroke: #5f6b74; stroke-width: 0.6"/>
      </g>
     </g>
    </g>
    <g id="ytick_4">
     <g id="line2d_27">
      <g>
       <use xlink:href="#md56eb8200d" x="84.24" y="263.753375" style="fill: #5f6b74; stroke: #5f6b74; stroke-width: 0.6"/>
      </g>
     </g>
    </g>
    <g id="ytick_5">
     <g id="line2d_28">
      <g>
       <use xlink:href="#md56eb8200d" x="84.24" y="256.224948" style="fill: #5f6b74; stroke: #5f6b74; stroke-width: 0.6"/>
      </g>
     </g>
    </g>
    <g id="ytick_6">
     <g id="line2d_29">
      <g>
       <use xlink:href="#md56eb8200d" x="84.24" y="249.703529" style="fill: #5f6b74; stroke: #5f6b74; stroke-width: 0.6"/>
      </g>
     </g>
    </g>
    <g id="ytick_7">
     <g id="line2d_30">
      <g>
       <use xlink:href="#md56eb8200d" x="84.24" y="243.951229" style="fill: #5f6b74; stroke: #5f6b74; stroke-width: 0.6"/>
      </g>
     </g>
    </g>
    <g id="ytick_8">
     <g id="line2d_31">
      <g>
       <use xlink:href="#md56eb8200d" x="84.24" y="204.953631" style="fill: #5f6b74; stroke: #5f6b74; stroke-width: 0.6"/>
      </g>
     </g>
    </g>
    <g id="ytick_9">
     <g id="line2d_32">
      <g>
       <use xlink:href="#md56eb8200d" x="84.24" y="185.151485" style="fill: #5f6b74; stroke: #5f6b74; stroke-width: 0.6"/>
      </g>
     </g>
    </g>
    <g id="ytick_10">
     <g id="line2d_33">
      <g>
       <use xlink:href="#md56eb8200d" x="84.24" y="171.101639" style="fill: #5f6b74; stroke: #5f6b74; stroke-width: 0.6"/>
      </g>
     </g>
    </g>
    <g id="ytick_11">
     <g id="line2d_34">
      <g>
       <use xlink:href="#md56eb8200d" x="84.24" y="160.203732" style="fill: #5f6b74; stroke: #5f6b74; stroke-width: 0.6"/>
      </g>
     </g>
    </g>
    <g id="ytick_12">
     <g id="line2d_35">
      <g>
       <use xlink:href="#md56eb8200d" x="84.24" y="151.299494" style="fill: #5f6b74; stroke: #5f6b74; stroke-width: 0.6"/>
      </g>
     </g>
    </g>
    <g id="ytick_13">
     <g id="line2d_36">
      <g>
       <use xlink:href="#md56eb8200d" x="84.24" y="143.771068" style="fill: #5f6b74; stroke: #5f6b74; stroke-width: 0.6"/>
      </g>
     </g>
    </g>
    <g id="ytick_14">
     <g id="line2d_37">
      <g>
       <use xlink:href="#md56eb8200d" x="84.24" y="137.249648" style="fill: #5f6b74; stroke: #5f6b74; stroke-width: 0.6"/>
      </g>
     </g>
    </g>
    <g id="ytick_15">
     <g id="line2d_38">
      <g>
       <use xlink:href="#md56eb8200d" x="84.24" y="131.497348" style="fill: #5f6b74; stroke: #5f6b74; stroke-width: 0.6"/>
      </g>
     </g>
    </g>
    <g id="ytick_16">
     <g id="line2d_39">
      <g>
       <use xlink:href="#md56eb8200d" x="84.24" y="92.49975" style="fill: #5f6b74; stroke: #5f6b74; stroke-width: 0.6"/>
      </g>
     </g>
    </g>
    <g id="ytick_17">
     <g id="line2d_40">
      <g>
       <use xlink:href="#md56eb8200d" x="84.24" y="72.697604" style="fill: #5f6b74; stroke: #5f6b74; stroke-width: 0.6"/>
      </g>
     </g>
    </g>
    <g id="ytick_18">
     <g id="line2d_41">
      <g>
       <use xlink:href="#md56eb8200d" x="84.24" y="58.647758" style="fill: #5f6b74; stroke: #5f6b74; stroke-width: 0.6"/>
      </g>
     </g>
    </g>
    <g id="ytick_19">
     <g id="line2d_42">
      <g>
       <use xlink:href="#md56eb8200d" x="84.24" y="47.749851" style="fill: #5f6b74; stroke: #5f6b74; stroke-width: 0.6"/>
      </g>
     </g>
    </g>
    <g id="ytick_20">
     <g id="line2d_43">
      <g>
       <use xlink:href="#md56eb8200d" x="84.24" y="38.845613" style="fill: #5f6b74; stroke: #5f6b74; stroke-width: 0.6"/>
      </g>
     </g>
    </g>
    <g id="ytick_21">
     <g id="line2d_44">
      <g>
       <use xlink:href="#md56eb8200d" x="84.24" y="31.317187" style="fill: #5f6b74; stroke: #5f6b74; stroke-width: 0.6"/>
      </g>
     </g>
    </g>
    <g id="text_6">
     <!-- Warm median runtime (s) -->
     <g style="fill: #17202a" transform="translate(18.294531 302.660016) rotate(-90) scale(0.21 -0.21)">
      <defs>
       <path id="DejaVuSans-Bold-57" d="M 191 4666
L 1344 4666
L 2150 1275
L 2950 4666
L 4109 4666
L 4909 1275
L 5716 4666
L 6859 4666
L 5759 0
L 4372 0
L 3525 3547
L 2688 0
L 1300 0
L 191 4666
z
" transform="scale(0.015625)"/>
       <path id="DejaVuSans-Bold-64" d="M 2919 2988
L 2919 4863
L 4044 4863
L 4044 0
L 2919 0
L 2919 506
Q 2688 197 2409 53
Q 2131 -91 1766 -91
Q 1119 -91 703 423
Q 288 938 288 1747
Q 288 2556 703 3070
Q 1119 3584 1766 3584
Q 2128 3584 2408 3439
Q 2688 3294 2919 2988
z
M 2181 722
Q 2541 722 2730 984
Q 2919 1247 2919 1747
Q 2919 2247 2730 2509
Q 2541 2772 2181 2772
Q 1825 2772 1636 2509
Q 1447 2247 1447 1747
Q 1447 1247 1636 984
Q 1825 722 2181 722
z
" transform="scale(0.015625)"/>
       <path id="DejaVuSans-Bold-28" d="M 2413 -844
L 1484 -844
Q 1006 -72 778 623
Q 550 1319 550 2003
Q 550 2688 779 3389
Q 1009 4091 1484 4856
L 2413 4856
Q 2013 4116 1813 3408
Q 1613 2700 1613 2009
Q 1613 1319 1811 609
Q 2009 -100 2413 -844
z
" transform="scale(0.015625)"/>
       <path id="DejaVuSans-Bold-29" d="M 513 -844
Q 913 -100 1113 609
Q 1313 1319 1313 2009
Q 1313 2700 1113 3408
Q 913 4116 513 4856
L 1441 4856
Q 1916 4091 2145 3389
Q 2375 2688 2375 2003
Q 2375 1319 2147 623
Q 1919 -72 1441 -844
L 513 -844
z
" transform="scale(0.015625)"/>
      </defs>
      <use xlink:href="#DejaVuSans-Bold-57"/>
      <use xlink:href="#DejaVuSans-Bold-61" x="106.677734"/>
      <use xlink:href="#DejaVuSans-Bold-72" x="174.158203"/>
      <use xlink:href="#DejaVuSans-Bold-6d" x="223.474609"/>
      <use xlink:href="#DejaVuSans-Bold-20" x="327.673828"/>
      <use xlink:href="#DejaVuSans-Bold-6d" x="362.488281"/>
      <use xlink:href="#DejaVuSans-Bold-65" x="466.6875"/>
      <use xlink:href="#DejaVuSans-Bold-64" x="534.509766"/>
      <use xlink:href="#DejaVuSans-Bold-69" x="606.091797"/>
      <use xlink:href="#DejaVuSans-Bold-61" x="640.369141"/>
      <use xlink:href="#DejaVuSans-Bold-6e" x="707.849609"/>
      <use xlink:href="#DejaVuSans-Bold-20" x="779.041016"/>
      <use xlink:href="#DejaVuSans-Bold-72" x="813.855469"/>
      <use xlink:href="#DejaVuSans-Bold-75" x="863.171875"/>
      <use xlink:href="#DejaVuSans-Bold-6e" x="934.363281"/>
      <use xlink:href="#DejaVuSans-Bold-74" x="1005.554688"/>
      <use xlink:href="#DejaVuSans-Bold-69" x="1053.357422"/>
      <use xlink:href="#DejaVuSans-Bold-6d" x="1087.634766"/>
      <use xlink:href="#DejaVuSans-Bold-65" x="1191.833984"/>
      <use xlink:href="#DejaVuSans-Bold-20" x="1259.65625"/>
      <use xlink:href="#DejaVuSans-Bold-28" x="1294.470703"/>
      <use xlink:href="#DejaVuSans-Bold-73" x="1340.173828"/>
      <use xlink:href="#DejaVuSans-Bold-29" x="1399.695312"/>
     </g>
    </g>
   </g>
   <g id="line2d_45">
    <path d="M 104.944332 261.626727
L 287.711185 187.225557
L 366.424585 142.18591
L 445.137984 119.187466
L 549.191438 69.904907
" clip-path="url(#p7897578c80)" style="fill: none; stroke: #2b6cb0; stroke-width: 3.3; stroke-linecap: square"/>
    <defs>
     <path id="m2356c1f7ea" d="M 0 4.25
C 1.127113 4.25 2.208214 3.802193 3.005204 3.005204
C 3.802193 2.208214 4.25 1.127113 4.25 0
C 4.25 -1.127113 3.802193 -2.208214 3.005204 -3.005204
C 2.208214 -3.802193 1.127113 -4.25 0 -4.25
C -1.127113 -4.25 -2.208214 -3.802193 -3.005204 -3.005204
C -3.802193 -2.208214 -4.25 -1.127113 -4.25 0
C -4.25 1.127113 -3.802193 2.208214 -3.005204 3.005204
C -2.208214 3.802193 -1.127113 4.25 0 4.25
z
" style="stroke: #2b6cb0"/>
    </defs>
    <g clip-path="url(#p7897578c80)">
     <use xlink:href="#m2356c1f7ea" x="104.944332" y="261.626727" style="fill: #2b6cb0; stroke: #2b6cb0"/>
     <use xlink:href="#m2356c1f7ea" x="287.711185" y="187.225557" style="fill: #2b6cb0; stroke: #2b6cb0"/>
     <use xlink:href="#m2356c1f7ea" x="366.424585" y="142.18591" style="fill: #2b6cb0; stroke: #2b6cb0"/>
     <use xlink:href="#m2356c1f7ea" x="445.137984" y="119.187466" style="fill: #2b6cb0; stroke: #2b6cb0"/>
     <use xlink:href="#m2356c1f7ea" x="549.191438" y="69.904907" style="fill: #2b6cb0; stroke: #2b6cb0"/>
    </g>
   </g>
   <g id="line2d_46">
    <path d="M 104.944332 239.947016
L 287.711185 169.077408
L 366.424585 142.510704
L 445.137984 79.516156
L 549.191438 49.82084
" clip-path="url(#p7897578c80)" style="fill: none; stroke: #1f7a8c; stroke-width: 3.3; stroke-linecap: square"/>
    <defs>
     <path id="m2494efde35" d="M 0 4.25
C 1.127113 4.25 2.208214 3.802193 3.005204 3.005204
C 3.802193 2.208214 4.25 1.127113 4.25 0
C 4.25 -1.127113 3.802193 -2.208214 3.005204 -3.005204
C 2.208214 -3.802193 1.127113 -4.25 0 -4.25
C -1.127113 -4.25 -2.208214 -3.802193 -3.005204 -3.005204
C -3.802193 -2.208214 -4.25 -1.127113 -4.25 0
C -4.25 1.127113 -3.802193 2.208214 -3.005204 3.005204
C -2.208214 3.802193 -1.127113 4.25 0 4.25
z
" style="stroke: #1f7a8c"/>
    </defs>
    <g clip-path="url(#p7897578c80)">
     <use xlink:href="#m2494efde35" x="104.944332" y="239.947016" style="fill: #1f7a8c; stroke: #1f7a8c"/>
     <use xlink:href="#m2494efde35" x="287.711185" y="169.077408" style="fill: #1f7a8c; stroke: #1f7a8c"/>
     <use xlink:href="#m2494efde35" x="366.424585" y="142.510704" style="fill: #1f7a8c; stroke: #1f7a8c"/>
     <use xlink:href="#m2494efde35" x="445.137984" y="79.516156" style="fill: #1f7a8c; stroke: #1f7a8c"/>
     <use xlink:href="#m2494efde35" x="549.191438" y="49.82084" style="fill: #1f7a8c; stroke: #1f7a8c"/>
    </g>
   </g>
   <g id="line2d_47">
    <path d="M 104.944332 221.698122
L 287.711185 160.89725
L 366.424585 100.646204
L 445.137984 83.735392
L 549.191438 40.161273
" clip-path="url(#p7897578c80)" style="fill: none; stroke: #e66a2c; stroke-width: 3.3; stroke-linecap: square"/>
    <defs>
     <path id="m6f1807de8b" d="M 0 4.25
C 1.127113 4.25 2.208214 3.802193 3.005204 3.005204
C 3.802193 2.208214 4.25 1.127113 4.25 0
C 4.25 -1.127113 3.802193 -2.208214 3.005204 -3.005204
C 2.208214 -3.802193 1.127113 -4.25 0 -4.25
C -1.127113 -4.25 -2.208214 -3.802193 -3.005204 -3.005204
C -3.802193 -2.208214 -4.25 -1.127113 -4.25 0
C -4.25 1.127113 -3.802193 2.208214 -3.005204 3.005204
C -2.208214 3.802193 -1.127113 4.25 0 4.25
z
" style="stroke: #e66a2c"/>
    </defs>
    <g clip-path="url(#p7897578c80)">
     <use xlink:href="#m6f1807de8b" x="104.944332" y="221.698122" style="fill: #e66a2c; stroke: #e66a2c"/>
     <use xlink:href="#m6f1807de8b" x="287.711185" y="160.89725" style="fill: #e66a2c; stroke: #e66a2c"/>
     <use xlink:href="#m6f1807de8b" x="366.424585" y="100.646204" style="fill: #e66a2c; stroke: #e66a2c"/>
     <use xlink:href="#m6f1807de8b" x="445.137984" y="83.735392" style="fill: #e66a2c; stroke: #e66a2c"/>
     <use xlink:href="#m6f1807de8b" x="549.191438" y="40.161273" style="fill: #e66a2c; stroke: #e66a2c"/>
    </g>
   </g>
   <g id="patch_3">
    <path d="M 84.24 272.7
L 84.24 29.088
" style="fill: none; opacity: 0.35; stroke: #d7cdc0; stroke-width: 0.8; stroke-linejoin: miter; stroke-linecap: square"/>
   </g>
   <g id="patch_4">
    <path d="M 84.24 272.7
L 622.08 272.7
" style="fill: none; opacity: 0.35; stroke: #d7cdc0; stroke-width: 0.8; stroke-linejoin: miter; stroke-linecap: square"/>
   </g>
   <g id="text_7">
    <!-- p=100 -->
    <g style="fill: #2b6cb0" transform="translate(559.191438 74.04397) scale(0.15 -0.15)">
     <defs>
      <path id="DejaVuSans-Bold-70" d="M 1656 506
L 1656 -1331
L 538 -1331
L 538 3500
L 1656 3500
L 1656 2988
Q 1888 3294 2169 3439
Q 2450 3584 2816 3584
Q 3463 3584 3878 3070
Q 4294 2556 4294 1747
Q 4294 938 3878 423
Q 3463 -91 2816 -91
Q 2450 -91 2169 54
Q 1888 200 1656 506
z
M 2400 2772
Q 2041 2772 1848 2508
Q 1656 2244 1656 1747
Q 1656 1250 1848 986
Q 2041 722 2400 722
Q 2759 722 2948 984
Q 3138 1247 3138 1747
Q 3138 2247 2948 2509
Q 2759 2772 2400 2772
z
" transform="scale(0.015625)"/>
      <path id="DejaVuSans-Bold-3d" d="M 678 3084
L 4684 3084
L 4684 2350
L 678 2350
L 678 3084
z
M 678 1663
L 4684 1663
L 4684 922
L 678 922
L 678 1663
z
" transform="scale(0.015625)"/>
      <path id="DejaVuSans-Bold-31" d="M 750 831
L 1813 831
L 1813 3847
L 722 3622
L 722 4441
L 1806 4666
L 2950 4666
L 2950 831
L 4013 831
L 4013 0
L 750 0
L 750 831
z
" transform="scale(0.015625)"/>
      <path id="DejaVuSans-Bold-30" d="M 2944 2338
Q 2944 3213 2780 3570
Q 2616 3928 2228 3928
Q 1841 3928 1675 3570
Q 1509 3213 1509 2338
Q 1509 1453 1675 1090
Q 1841 728 2228 728
Q 2613 728 2778 1090
Q 2944 1453 2944 2338
z
M 4147 2328
Q 4147 1169 3647 539
Q 3147 -91 2228 -91
Q 1306 -91 806 539
Q 306 1169 306 2328
Q 306 3491 806 4120
Q 1306 4750 2228 4750
Q 3147 4750 3647 4120
Q 4147 3491 4147 2328
z
" transform="scale(0.015625)"/>
     </defs>
     <use xlink:href="#DejaVuSans-Bold-70"/>
     <use xlink:href="#DejaVuSans-Bold-3d" x="71.582031"/>
     <use xlink:href="#DejaVuSans-Bold-31" x="155.371094"/>
     <use xlink:href="#DejaVuSans-Bold-30" x="224.951172"/>
     <use xlink:href="#DejaVuSans-Bold-30" x="294.53125"/>
    </g>
   </g>
   <g id="text_8">
    <!-- p=1,000 -->
    <g style="fill: #1f7a8c" transform="translate(559.191438 53.959903) scale(0.15 -0.15)">
     <defs>
      <path id="DejaVuSans-Bold-2c" d="M 653 1209
L 1778 1209
L 1778 256
L 1006 -909
L 341 -909
L 653 256
L 653 1209
z
" transform="scale(0.015625)"/>
     </defs>
     <use xlink:href="#DejaVuSans-Bold-70"/>
     <use xlink:href="#DejaVuSans-Bold-3d" x="71.582031"/>
     <use xlink:href="#DejaVuSans-Bold-31" x="155.371094"/>
     <use xlink:href="#DejaVuSans-Bold-2c" x="224.951172"/>
     <use xlink:href="#DejaVuSans-Bold-30" x="262.939453"/>
     <use xlink:href="#DejaVuSans-Bold-30" x="332.519531"/>
     <use xlink:href="#DejaVuSans-Bold-30" x="402.099609"/>
    </g>
   </g>
   <g id="text_9">
    <!-- p=3,000 -->
    <g style="fill: #e66a2c" transform="translate(559.191438 44.300335) scale(0.15 -0.15)">
     <defs>
      <path id="DejaVuSans-Bold-33" d="M 2981 2516
Q 3453 2394 3698 2092
Q 3944 1791 3944 1325
Q 3944 631 3412 270
Q 2881 -91 1863 -91
Q 1503 -91 1142 -33
Q 781 25 428 141
L 428 1069
Q 766 900 1098 814
Q 1431 728 1753 728
Q 2231 728 2486 893
Q 2741 1059 2741 1369
Q 2741 1688 2480 1852
Q 2219 2016 1709 2016
L 1228 2016
L 1228 2791
L 1734 2791
Q 2188 2791 2409 2933
Q 2631 3075 2631 3366
Q 2631 3634 2415 3781
Q 2200 3928 1806 3928
Q 1516 3928 1219 3862
Q 922 3797 628 3669
L 628 4550
Q 984 4650 1334 4700
Q 1684 4750 2022 4750
Q 2931 4750 3382 4451
Q 3834 4153 3834 3553
Q 3834 3144 3618 2883
Q 3403 2622 2981 2516
z
" transform="scale(0.015625)"/>
     </defs>
     <use xlink:href="#DejaVuSans-Bold-70"/>
     <use xlink:href="#DejaVuSans-Bold-3d" x="71.582031"/>
     <use xlink:href="#DejaVuSans-Bold-33" x="155.371094"/>
     <use xlink:href="#DejaVuSans-Bold-2c" x="224.951172"/>
     <use xlink:href="#DejaVuSans-Bold-30" x="262.939453"/>
     <use xlink:href="#DejaVuSans-Bold-30" x="332.519531"/>
     <use xlink:href="#DejaVuSans-Bold-30" x="402.099609"/>
    </g>
   </g>
   <g id="text_10">
    <g id="patch_5">
     <path d="M 100.0194 59.272102
L 479.414166 59.272102
Q 481.444166 59.272102 481.444166 57.242102
L 481.444166 37.00554
Q 481.444166 34.97554 479.414166 34.97554
L 100.0194 34.97554
Q 97.9894 34.97554 97.9894 37.00554
L 97.9894 57.242102
Q 97.9894 59.272102 100.0194 59.272102
z
" style="fill: #ffffff; opacity: 0.94; stroke: #d7cdc0; stroke-linejoin: miter"/>
    </g>
    <!-- MacBook Air · NumPy batched matrix · n=500 -->
    <g style="fill: #17202a" transform="translate(103.0644 51.068274) scale(0.145 -0.145)">
     <defs>
      <path id="DejaVuSans-Bold-4d" d="M 588 4666
L 2119 4666
L 3181 2169
L 4250 4666
L 5778 4666
L 5778 0
L 4641 0
L 4641 3413
L 3566 897
L 2803 897
L 1728 3413
L 1728 0
L 588 0
L 588 4666
z
" transform="scale(0.015625)"/>
      <path id="DejaVuSans-Bold-63" d="M 3366 3391
L 3366 2478
Q 3138 2634 2908 2709
Q 2678 2784 2431 2784
Q 1963 2784 1702 2511
Q 1441 2238 1441 1747
Q 1441 1256 1702 982
Q 1963 709 2431 709
Q 2694 709 2930 787
Q 3166 866 3366 1019
L 3366 103
Q 3103 6 2833 -42
Q 2563 -91 2291 -91
Q 1344 -91 809 395
Q 275 881 275 1747
Q 275 2613 809 3098
Q 1344 3584 2291 3584
Q 2566 3584 2833 3536
Q 3100 3488 3366 3391
z
" transform="scale(0.015625)"/>
      <path id="DejaVuSans-Bold-42" d="M 2456 2859
Q 2741 2859 2887 2984
Q 3034 3109 3034 3353
Q 3034 3594 2887 3720
Q 2741 3847 2456 3847
L 1791 3847
L 1791 2859
L 2456 2859
z
M 2497 819
Q 2859 819 3042 972
Q 3225 1125 3225 1434
Q 3225 1738 3044 1889
Q 2863 2041 2497 2041
L 1791 2041
L 1791 819
L 2497 819
z
M 3616 2497
Q 4003 2384 4215 2081
Q 4428 1778 4428 1338
Q 4428 663 3972 331
Q 3516 0 2584 0
L 588 0
L 588 4666
L 2394 4666
Q 3366 4666 3802 4372
Q 4238 4078 4238 3431
Q 4238 3091 4078 2852
Q 3919 2613 3616 2497
z
" transform="scale(0.015625)"/>
      <path id="DejaVuSans-Bold-6b" d="M 538 4863
L 1656 4863
L 1656 2216
L 2944 3500
L 4244 3500
L 2534 1894
L 4378 0
L 3022 0
L 1656 1459
L 1656 0
L 538 0
L 538 4863
z
" transform="scale(0.015625)"/>
      <path id="DejaVuSans-Bold-41" d="M 3419 850
L 1538 850
L 1241 0
L 31 0
L 1759 4666
L 3194 4666
L 4922 0
L 3713 0
L 3419 850
z
M 1838 1716
L 3116 1716
L 2478 3572
L 1838 1716
z
" transform="scale(0.015625)"/>
      <path id="DejaVuSans-Bold-b7" d="M 653 2828
L 1778 2828
L 1778 1619
L 653 1619
L 653 2828
z
" transform="scale(0.015625)"/>
      <path id="DejaVuSans-Bold-4e" d="M 588 4666
L 1931 4666
L 3628 1466
L 3628 4666
L 4769 4666
L 4769 0
L 3425 0
L 1728 3200
L 1728 0
L 588 0
L 588 4666
z
" transform="scale(0.015625)"/>
      <path id="DejaVuSans-Bold-79" d="M 78 3500
L 1197 3500
L 2138 1125
L 2938 3500
L 4056 3500
L 2584 -331
Q 2363 -916 2067 -1148
Q 1772 -1381 1288 -1381
L 641 -1381
L 641 -647
L 991 -647
Q 1275 -647 1404 -556
Q 1534 -466 1606 -231
L 1638 -134
L 78 3500
z
" transform="scale(0.015625)"/>
      <path id="DejaVuSans-Bold-62" d="M 2400 722
Q 2759 722 2948 984
Q 3138 1247 3138 1747
Q 3138 2247 2948 2509
Q 2759 2772 2400 2772
Q 2041 2772 1848 2508
Q 1656 2244 1656 1747
Q 1656 1250 1848 986
Q 2041 722 2400 722
z
M 1656 2988
Q 1888 3294 2169 3439
Q 2450 3584 2816 3584
Q 3463 3584 3878 3070
Q 4294 2556 4294 1747
Q 4294 938 3878 423
Q 3463 -91 2816 -91
Q 2450 -91 2169 54
Q 1888 200 1656 506
L 1656 0
L 538 0
L 538 4863
L 1656 4863
L 1656 2988
z
" transform="scale(0.015625)"/>
      <path id="DejaVuSans-Bold-68" d="M 4056 2131
L 4056 0
L 2931 0
L 2931 347
L 2931 1625
Q 2931 2084 2911 2256
Q 2891 2428 2841 2509
Q 2775 2619 2662 2680
Q 2550 2741 2406 2741
Q 2056 2741 1856 2470
Q 1656 2200 1656 1722
L 1656 0
L 538 0
L 538 4863
L 1656 4863
L 1656 2988
Q 1909 3294 2193 3439
Q 2478 3584 2822 3584
Q 3428 3584 3742 3212
Q 4056 2841 4056 2131
z
" transform="scale(0.015625)"/>
      <path id="DejaVuSans-Bold-78" d="M 1422 1791
L 159 3500
L 1344 3500
L 2059 2463
L 2784 3500
L 3969 3500
L 2706 1797
L 4031 0
L 2847 0
L 2059 1106
L 1281 0
L 97 0
L 1422 1791
z
" transform="scale(0.015625)"/>
      <path id="DejaVuSans-Bold-35" d="M 678 4666
L 3669 4666
L 3669 3781
L 1638 3781
L 1638 3059
Q 1775 3097 1914 3117
Q 2053 3138 2203 3138
Q 3056 3138 3531 2711
Q 4006 2284 4006 1522
Q 4006 766 3489 337
Q 2972 -91 2053 -91
Q 1656 -91 1267 -14
Q 878 63 494 219
L 494 1166
Q 875 947 1217 837
Q 1559 728 1863 728
Q 2300 728 2551 942
Q 2803 1156 2803 1522
Q 2803 1891 2551 2103
Q 2300 2316 1863 2316
Q 1603 2316 1309 2248
Q 1016 2181 678 2041
L 678 4666
z
" transform="scale(0.015625)"/>
     </defs>
     <use xlink:href="#DejaVuSans-Bold-4d"/>
     <use xlink:href="#DejaVuSans-Bold-61" x="99.511719"/>
     <use xlink:href="#DejaVuSans-Bold-63" x="166.992188"/>
     <use xlink:href="#DejaVuSans-Bold-42" x="226.269531"/>
     <use xlink:href="#DejaVuSans-Bold-6f" x="302.490234"/>
     <use xlink:href="#DejaVuSans-Bold-6f" x="371.191406"/>
     <use xlink:href="#DejaVuSans-Bold-6b" x="439.892578"/>
     <use xlink:href="#DejaVuSans-Bold-20" x="506.396484"/>
     <use xlink:href="#DejaVuSans-Bold-41" x="541.210938"/>
     <use xlink:href="#DejaVuSans-Bold-69" x="618.603516"/>
     <use xlink:href="#DejaVuSans-Bold-72" x="652.880859"/>
     <use xlink:href="#DejaVuSans-Bold-20" x="702.197266"/>
     <use xlink:href="#DejaVuSans-Bold-b7" x="737.011719"/>
     <use xlink:href="#DejaVuSans-Bold-20" x="775"/>
     <use xlink:href="#DejaVuSans-Bold-4e" x="809.814453"/>
     <use xlink:href="#DejaVuSans-Bold-75" x="893.505859"/>
     <use xlink:href="#DejaVuSans-Bold-6d" x="964.697266"/>
     <use xlink:href="#DejaVuSans-Bold-50" x="1068.896484"/>
     <use xlink:href="#DejaVuSans-Bold-79" x="1144.0625"/>
     <use xlink:href="#DejaVuSans-Bold-20" x="1209.248047"/>
     <use xlink:href="#DejaVuSans-Bold-62" x="1244.0625"/>
     <use xlink:href="#DejaVuSans-Bold-61" x="1315.644531"/>
     <use xlink:href="#DejaVuSans-Bold-74" x="1383.125"/>
     <use xlink:href="#DejaVuSans-Bold-63" x="1430.927734"/>
     <use xlink:href="#DejaVuSans-Bold-68" x="1490.205078"/>
     <use xlink:href="#DejaVuSans-Bold-65" x="1561.396484"/>
     <use xlink:href="#DejaVuSans-Bold-64" x="1629.21875"/>
     <use xlink:href="#DejaVuSans-Bold-20" x="1700.800781"/>
     <use xlink:href="#DejaVuSans-Bold-6d" x="1735.615234"/>
     <use xlink:href="#DejaVuSans-Bold-61" x="1839.814453"/>
     <use xlink:href="#DejaVuSans-Bold-74" x="1907.294922"/>
     <use xlink:href="#DejaVuSans-Bold-72" x="1955.097656"/>
     <use xlink:href="#DejaVuSans-Bold-69" x="2004.414062"/>
     <use xlink:href="#DejaVuSans-Bold-78" x="2038.691406"/>
     <use xlink:href="#DejaVuSans-Bold-20" x="2103.193359"/>
     <use xlink:href="#DejaVuSans-Bold-b7" x="2138.007812"/>
     <use xlink:href="#DejaVuSans-Bold-20" x="2175.996094"/>
     <use xlink:href="#DejaVuSans-Bold-6e" x="2210.810547"/>
     <use xlink:href="#DejaVuSans-Bold-3d" x="2282.001953"/>
     <use xlink:href="#DejaVuSans-Bold-35" x="2365.791016"/>
     <use xlink:href="#DejaVuSans-Bold-30" x="2435.371094"/>
     <use xlink:href="#DejaVuSans-Bold-30" x="2504.951172"/>
    </g>
   </g>
  </g>
  <g id="text_11">
   <!-- batch_R = min(500, R); warm median over seeds -->
   <g style="fill: #5f6b74" transform="translate(84.24 345.853097) scale(0.105 -0.105)">
    <defs>
     <path id="DejaVuSans-62" d="M 3116 1747
Q 3116 2381 2855 2742
Q 2594 3103 2138 3103
Q 1681 3103 1420 2742
Q 1159 2381 1159 1747
Q 1159 1113 1420 752
Q 1681 391 2138 391
Q 2594 391 2855 752
Q 3116 1113 3116 1747
z
M 1159 2969
Q 1341 3281 1617 3432
Q 1894 3584 2278 3584
Q 2916 3584 3314 3078
Q 3713 2572 3713 1747
Q 3713 922 3314 415
Q 2916 -91 2278 -91
Q 1894 -91 1617 61
Q 1341 213 1159 525
L 1159 0
L 581 0
L 581 4863
L 1159 4863
L 1159 2969
z
" transform="scale(0.015625)"/>
     <path id="DejaVuSans-61" d="M 2194 1759
Q 1497 1759 1228 1600
Q 959 1441 959 1056
Q 959 750 1161 570
Q 1363 391 1709 391
Q 2188 391 2477 730
Q 2766 1069 2766 1631
L 2766 1759
L 2194 1759
z
M 3341 1997
L 3341 0
L 2766 0
L 2766 531
Q 2569 213 2275 61
Q 1981 -91 1556 -91
Q 1019 -91 701 211
Q 384 513 384 1019
Q 384 1609 779 1909
Q 1175 2209 1959 2209
L 2766 2209
L 2766 2266
Q 2766 2663 2505 2880
Q 2244 3097 1772 3097
Q 1472 3097 1187 3025
Q 903 2953 641 2809
L 641 3341
Q 956 3463 1253 3523
Q 1550 3584 1831 3584
Q 2591 3584 2966 3190
Q 3341 2797 3341 1997
z
" transform="scale(0.015625)"/>
     <path id="DejaVuSans-74" d="M 1172 4494
L 1172 3500
L 2356 3500
L 2356 3053
L 1172 3053
L 1172 1153
Q 1172 725 1289 603
Q 1406 481 1766 481
L 2356 481
L 2356 0
L 1766 0
Q 1100 0 847 248
Q 594 497 594 1153
L 594 3053
L 172 3053
L 172 3500
L 594 3500
L 594 4494
L 1172 4494
z
" transform="scale(0.015625)"/>
     <path id="DejaVuSans-63" d="M 3122 3366
L 3122 2828
Q 2878 2963 2633 3030
Q 2388 3097 2138 3097
Q 1578 3097 1268 2742
Q 959 2388 959 1747
Q 959 1106 1268 751
Q 1578 397 2138 397
Q 2388 397 2633 464
Q 2878 531 3122 666
L 3122 134
Q 2881 22 2623 -34
Q 2366 -91 2075 -91
Q 1284 -91 818 406
Q 353 903 353 1747
Q 353 2603 823 3093
Q 1294 3584 2113 3584
Q 2378 3584 2631 3529
Q 2884 3475 3122 3366
z
" transform="scale(0.015625)"/>
     <path id="DejaVuSans-68" d="M 3513 2113
L 3513 0
L 2938 0
L 2938 2094
Q 2938 2591 2744 2837
Q 2550 3084 2163 3084
Q 1697 3084 1428 2787
Q 1159 2491 1159 1978
L 1159 0
L 581 0
L 581 4863
L 1159 4863
L 1159 2956
Q 1366 3272 1645 3428
Q 1925 3584 2291 3584
Q 2894 3584 3203 3211
Q 3513 2838 3513 2113
z
" transform="scale(0.015625)"/>
     <path id="DejaVuSans-5f" d="M 3263 -1063
L 3263 -1509
L -63 -1509
L -63 -1063
L 3263 -1063
z
" transform="scale(0.015625)"/>
     <path id="DejaVuSans-52" d="M 2841 2188
Q 3044 2119 3236 1894
Q 3428 1669 3622 1275
L 4263 0
L 3584 0
L 2988 1197
Q 2756 1666 2539 1819
Q 2322 1972 1947 1972
L 1259 1972
L 1259 0
L 628 0
L 628 4666
L 2053 4666
Q 2853 4666 3247 4331
Q 3641 3997 3641 3322
Q 3641 2881 3436 2590
Q 3231 2300 2841 2188
z
M 1259 4147
L 1259 2491
L 2053 2491
Q 2509 2491 2742 2702
Q 2975 2913 2975 3322
Q 2975 3731 2742 3939
Q 2509 4147 2053 4147
L 1259 4147
z
" transform="scale(0.015625)"/>
     <path id="DejaVuSans-20" transform="scale(0.015625)"/>
     <path id="DejaVuSans-3d" d="M 678 2906
L 4684 2906
L 4684 2381
L 678 2381
L 678 2906
z
M 678 1631
L 4684 1631
L 4684 1100
L 678 1100
L 678 1631
z
" transform="scale(0.015625)"/>
     <path id="DejaVuSans-6d" d="M 3328 2828
Q 3544 3216 3844 3400
Q 4144 3584 4550 3584
Q 5097 3584 5394 3201
Q 5691 2819 5691 2113
L 5691 0
L 5113 0
L 5113 2094
Q 5113 2597 4934 2840
Q 4756 3084 4391 3084
Q 3944 3084 3684 2787
Q 3425 2491 3425 1978
L 3425 0
L 2847 0
L 2847 2094
Q 2847 2600 2669 2842
Q 2491 3084 2119 3084
Q 1678 3084 1418 2786
Q 1159 2488 1159 1978
L 1159 0
L 581 0
L 581 3500
L 1159 3500
L 1159 2956
Q 1356 3278 1631 3431
Q 1906 3584 2284 3584
Q 2666 3584 2933 3390
Q 3200 3197 3328 2828
z
" transform="scale(0.015625)"/>
     <path id="DejaVuSans-69" d="M 603 3500
L 1178 3500
L 1178 0
L 603 0
L 603 3500
z
M 603 4863
L 1178 4863
L 1178 4134
L 603 4134
L 603 4863
z
" transform="scale(0.015625)"/>
     <path id="DejaVuSans-6e" d="M 3513 2113
L 3513 0
L 2938 0
L 2938 2094
Q 2938 2591 2744 2837
Q 2550 3084 2163 3084
Q 1697 3084 1428 2787
Q 1159 2491 1159 1978
L 1159 0
L 581 0
L 581 3500
L 1159 3500
L 1159 2956
Q 1366 3272 1645 3428
Q 1925 3584 2291 3584
Q 2894 3584 3203 3211
Q 3513 2838 3513 2113
z
" transform="scale(0.015625)"/>
     <path id="DejaVuSans-28" d="M 1984 4856
Q 1566 4138 1362 3434
Q 1159 2731 1159 2009
Q 1159 1288 1364 580
Q 1569 -128 1984 -844
L 1484 -844
Q 1016 -109 783 600
Q 550 1309 550 2009
Q 550 2706 781 3412
Q 1013 4119 1484 4856
L 1984 4856
z
" transform="scale(0.015625)"/>
     <path id="DejaVuSans-35" d="M 691 4666
L 3169 4666
L 3169 4134
L 1269 4134
L 1269 2991
Q 1406 3038 1543 3061
Q 1681 3084 1819 3084
Q 2600 3084 3056 2656
Q 3513 2228 3513 1497
Q 3513 744 3044 326
Q 2575 -91 1722 -91
Q 1428 -91 1123 -41
Q 819 9 494 109
L 494 744
Q 775 591 1075 516
Q 1375 441 1709 441
Q 2250 441 2565 725
Q 2881 1009 2881 1497
Q 2881 1984 2565 2268
Q 2250 2553 1709 2553
Q 1456 2553 1204 2497
Q 953 2441 691 2322
L 691 4666
z
" transform="scale(0.015625)"/>
     <path id="DejaVuSans-2c" d="M 750 794
L 1409 794
L 1409 256
L 897 -744
L 494 -744
L 750 256
L 750 794
z
" transform="scale(0.015625)"/>
     <path id="DejaVuSans-29" d="M 513 4856
L 1013 4856
Q 1481 4119 1714 3412
Q 1947 2706 1947 2009
Q 1947 1309 1714 600
Q 1481 -109 1013 -844
L 513 -844
Q 928 -128 1133 580
Q 1338 1288 1338 2009
Q 1338 2731 1133 3434
Q 928 4138 513 4856
z
" transform="scale(0.015625)"/>
     <path id="DejaVuSans-3b" d="M 750 3309
L 1409 3309
L 1409 2516
L 750 2516
L 750 3309
z
M 750 794
L 1409 794
L 1409 256
L 897 -744
L 494 -744
L 750 256
L 750 794
z
" transform="scale(0.015625)"/>
     <path id="DejaVuSans-77" d="M 269 3500
L 844 3500
L 1563 769
L 2278 3500
L 2956 3500
L 3675 769
L 4391 3500
L 4966 3500
L 4050 0
L 3372 0
L 2619 2869
L 1863 0
L 1184 0
L 269 3500
z
" transform="scale(0.015625)"/>
     <path id="DejaVuSans-72" d="M 2631 2963
Q 2534 3019 2420 3045
Q 2306 3072 2169 3072
Q 1681 3072 1420 2755
Q 1159 2438 1159 1844
L 1159 0
L 581 0
L 581 3500
L 1159 3500
L 1159 2956
Q 1341 3275 1631 3429
Q 1922 3584 2338 3584
Q 2397 3584 2469 3576
Q 2541 3569 2628 3553
L 2631 2963
z
" transform="scale(0.015625)"/>
     <path id="DejaVuSans-65" d="M 3597 1894
L 3597 1613
L 953 1613
Q 991 1019 1311 708
Q 1631 397 2203 397
Q 2534 397 2845 478
Q 3156 559 3463 722
L 3463 178
Q 3153 47 2828 -22
Q 2503 -91 2169 -91
Q 1331 -91 842 396
Q 353 884 353 1716
Q 353 2575 817 3079
Q 1281 3584 2069 3584
Q 2775 3584 3186 3129
Q 3597 2675 3597 1894
z
M 3022 2063
Q 3016 2534 2758 2815
Q 2500 3097 2075 3097
Q 1594 3097 1305 2825
Q 1016 2553 972 2059
L 3022 2063
z
" transform="scale(0.015625)"/>
     <path id="DejaVuSans-64" d="M 2906 2969
L 2906 4863
L 3481 4863
L 3481 0
L 2906 0
L 2906 525
Q 2725 213 2448 61
Q 2172 -91 1784 -91
Q 1150 -91 751 415
Q 353 922 353 1747
Q 353 2572 751 3078
Q 1150 3584 1784 3584
Q 2172 3584 2448 3432
Q 2725 3281 2906 2969
z
M 947 1747
Q 947 1113 1208 752
Q 1469 391 1925 391
Q 2381 391 2643 752
Q 2906 1113 2906 1747
Q 2906 2381 2643 2742
Q 2381 3103 1925 3103
Q 1469 3103 1208 2742
Q 947 2381 947 1747
z
" transform="scale(0.015625)"/>
     <path id="DejaVuSans-6f" d="M 1959 3097
Q 1497 3097 1228 2736
Q 959 2375 959 1747
Q 959 1119 1226 758
Q 1494 397 1959 397
Q 2419 397 2687 759
Q 2956 1122 2956 1747
Q 2956 2369 2687 2733
Q 2419 3097 1959 3097
z
M 1959 3584
Q 2709 3584 3137 3096
Q 3566 2609 3566 1747
Q 3566 888 3137 398
Q 2709 -91 1959 -91
Q 1206 -91 779 398
Q 353 888 353 1747
Q 353 2609 779 3096
Q 1206 3584 1959 3584
z
" transform="scale(0.015625)"/>
     <path id="DejaVuSans-76" d="M 191 3500
L 800 3500
L 1894 563
L 2988 3500
L 3597 3500
L 2284 0
L 1503 0
L 191 3500
z
" transform="scale(0.015625)"/>
     <path id="DejaVuSans-73" d="M 2834 3397
L 2834 2853
Q 2591 2978 2328 3040
Q 2066 3103 1784 3103
Q 1356 3103 1142 2972
Q 928 2841 928 2578
Q 928 2378 1081 2264
Q 1234 2150 1697 2047
L 1894 2003
Q 2506 1872 2764 1633
Q 3022 1394 3022 966
Q 3022 478 2636 193
Q 2250 -91 1575 -91
Q 1294 -91 989 -36
Q 684 19 347 128
L 347 722
Q 666 556 975 473
Q 1284 391 1588 391
Q 1994 391 2212 530
Q 2431 669 2431 922
Q 2431 1156 2273 1281
Q 2116 1406 1581 1522
L 1381 1569
Q 847 1681 609 1914
Q 372 2147 372 2553
Q 372 3047 722 3315
Q 1072 3584 1716 3584
Q 2034 3584 2315 3537
Q 2597 3491 2834 3397
z
" transform="scale(0.015625)"/>
    </defs>
    <use xlink:href="#DejaVuSans-62"/>
    <use xlink:href="#DejaVuSans-61" x="63.476562"/>
    <use xlink:href="#DejaVuSans-74" x="124.755859"/>
    <use xlink:href="#DejaVuSans-63" x="163.964844"/>
    <use xlink:href="#DejaVuSans-68" x="218.945312"/>
    <use xlink:href="#DejaVuSans-5f" x="282.324219"/>
    <use xlink:href="#DejaVuSans-52" x="332.324219"/>
    <use xlink:href="#DejaVuSans-20" x="401.806641"/>
    <use xlink:href="#DejaVuSans-3d" x="433.59375"/>
    <use xlink:href="#DejaVuSans-20" x="517.382812"/>
    <use xlink:href="#DejaVuSans-6d" x="549.169922"/>
    <use xlink:href="#DejaVuSans-69" x="646.582031"/>
    <use xlink:href="#DejaVuSans-6e" x="674.365234"/>
    <use xlink:href="#DejaVuSans-28" x="737.744141"/>
    <use xlink:href="#DejaVuSans-35" x="776.757812"/>
    <use xlink:href="#DejaVuSans-30" x="840.380859"/>
    <use xlink:href="#DejaVuSans-30" x="904.003906"/>
    <use xlink:href="#DejaVuSans-2c" x="967.626953"/>
    <use xlink:href="#DejaVuSans-20" x="999.414062"/>
    <use xlink:href="#DejaVuSans-52" x="1031.201172"/>
    <use xlink:href="#DejaVuSans-29" x="1100.683594"/>
    <use xlink:href="#DejaVuSans-3b" x="1139.697266"/>
    <use xlink:href="#DejaVuSans-20" x="1173.388672"/>
    <use xlink:href="#DejaVuSans-77" x="1205.175781"/>
    <use xlink:href="#DejaVuSans-61" x="1286.962891"/>
    <use xlink:href="#DejaVuSans-72" x="1348.242188"/>
    <use xlink:href="#DejaVuSans-6d" x="1387.605469"/>
    <use xlink:href="#DejaVuSans-20" x="1485.017578"/>
    <use xlink:href="#DejaVuSans-6d" x="1516.804688"/>
    <use xlink:href="#DejaVuSans-65" x="1614.216797"/>
    <use xlink:href="#DejaVuSans-64" x="1675.740234"/>
    <use xlink:href="#DejaVuSans-69" x="1739.216797"/>
    <use xlink:href="#DejaVuSans-61" x="1767"/>
    <use xlink:href="#DejaVuSans-6e" x="1828.279297"/>
    <use xlink:href="#DejaVuSans-20" x="1891.658203"/>
    <use xlink:href="#DejaVuSans-6f" x="1923.445312"/>
    <use xlink:href="#DejaVuSans-76" x="1984.626953"/>
    <use xlink:href="#DejaVuSans-65" x="2043.806641"/>
    <use xlink:href="#DejaVuSans-72" x="2105.330078"/>
    <use xlink:href="#DejaVuSans-20" x="2146.443359"/>
    <use xlink:href="#DejaVuSans-73" x="2178.230469"/>
    <use xlink:href="#DejaVuSans-65" x="2230.330078"/>
    <use xlink:href="#DejaVuSans-65" x="2291.853516"/>
    <use xlink:href="#DejaVuSans-64" x="2353.376953"/>
    <use xlink:href="#DejaVuSans-73" x="2416.853516"/>
   </g>
  </g>
 </g>
 <defs>
  <clipPath id="p7897578c80">
   <rect x="84.24" y="29.088" width="537.84" height="243.612"/>
  </clipPath>
 </defs>
</svg>
